<svg width="128" height="128" viewBox="0 0 128 128" fill="none" xmlns="http://www.w3.org/2000/svg">
<path d="M16.2192 15.7621C16.0496 15.7651 15.883 15.8063 15.7315 15.8826C15.5801 15.9588 15.4478 16.0682 15.3444 16.2026C15.2411 16.337 15.1693 16.493 15.1345 16.6589C15.0996 16.8248 15.1026 16.9965 15.1432 17.1611L39.5372 115.903C39.5845 116.096 39.6818 116.272 39.8191 116.415C39.9564 116.558 40.129 116.663 40.3195 116.718C40.51 116.773 40.7116 116.777 40.9041 116.73C41.0966 116.682 41.2732 116.585 41.4162 116.447L114.802 45.8571C114.945 45.7197 115.049 45.547 115.104 45.3565C115.16 45.166 115.163 44.9643 115.116 44.7718C115.068 44.5793 114.971 44.4027 114.833 44.2599C114.696 44.1171 114.523 44.013 114.332 43.9581L16.5502 15.8061C16.4426 15.7751 16.3311 15.7603 16.2192 15.7621ZM17.8032 18.5161L111.827 45.5861L41.2612 113.463L17.8032 18.5161Z" fill="white"/>
<path d="M65.1373 29.8401C64.9887 29.8369 64.8409 29.8631 64.7024 29.9171C64.5639 29.9712 64.4374 30.0521 64.3303 30.1551L27.6543 65.4601C27.5115 65.5976 27.4075 65.7703 27.3527 65.9607C27.2978 66.1512 27.2941 66.3527 27.3418 66.5451C27.3896 66.7374 27.4871 66.9138 27.6246 67.0566C27.7621 67.1993 27.9348 67.3033 28.1253 67.3581L76.9843 81.4401C77.1746 81.495 77.376 81.4988 77.5683 81.4513C77.7605 81.4037 77.9369 81.3064 78.0797 81.1691C78.2224 81.0318 78.3266 80.8593 78.3816 80.6691C78.4367 80.4788 78.4407 80.2774 78.3933 80.0851L66.2103 30.6981C66.1507 30.457 66.0133 30.2422 65.8193 30.0871C65.6253 29.932 65.3856 29.8452 65.1373 29.8401ZM64.4863 33.1401L75.7343 78.7301L30.6303 65.7301L64.4863 33.1401Z" fill="white"/>
<path d="M46.914 47.3131C46.7445 47.3162 46.5778 47.3573 46.4264 47.4336C46.2749 47.5099 46.1426 47.6193 46.0393 47.7537C45.9359 47.8881 45.8641 48.044 45.8293 48.2099C45.7944 48.3759 45.7974 48.5475 45.838 48.7121L51.892 73.2431C51.9394 73.4358 52.0367 73.6126 52.1742 73.7557C52.3116 73.8987 52.4844 74.003 52.675 74.0581C52.8656 74.1132 53.0674 74.117 53.26 74.0693C53.4526 74.0215 53.6292 73.9239 53.772 73.7861L71.994 56.2231C72.1367 56.0856 72.2407 55.9128 72.2955 55.7223C72.3503 55.5318 72.3539 55.3302 72.3061 55.1378C72.2582 54.9455 72.1606 54.7691 72.0229 54.6264C71.8853 54.4837 71.7125 54.3798 71.522 54.3251L47.245 47.3571C47.1374 47.3261 47.0259 47.3113 46.914 47.3131ZM48.497 50.0641L69.019 55.9541L53.614 70.8001L48.497 50.0641Z" fill="white"/>
<path d="M40.9023 22.8091C40.7536 22.806 40.6058 22.8324 40.4673 22.8866C40.3288 22.9408 40.2024 23.0219 40.0953 23.1251L21.8733 40.6871C21.7306 40.8247 21.6266 40.9974 21.5718 41.1879C21.517 41.3784 21.5134 41.58 21.5612 41.7724C21.609 41.9648 21.7067 42.1412 21.8443 42.2838C21.982 42.4265 22.1547 42.5304 22.3453 42.5851L46.6183 49.5541C46.8086 49.6088 47.01 49.6125 47.2023 49.5648C47.3945 49.5171 47.5708 49.4197 47.7135 49.2823C47.8561 49.1449 47.9601 48.9724 48.015 48.7821C48.0699 48.5918 48.0738 48.3904 48.0263 48.1981L41.9753 23.6681C41.9161 23.4266 41.7788 23.2114 41.5848 23.0559C41.3908 22.9004 41.1509 22.8133 40.9023 22.8081V22.8091ZM40.2523 26.1091L45.3663 46.8451L24.8493 40.9551L40.2523 26.1081V26.1091ZM89.4533 36.7931C89.3048 36.7902 89.1571 36.8166 89.0188 36.8708C88.8805 36.925 88.7542 37.006 88.6473 37.1091L70.4233 54.6701C70.2803 54.8077 70.1761 54.9805 70.1212 55.1711C70.0662 55.3617 70.0625 55.5635 70.1104 55.756C70.1582 55.9486 70.256 56.1251 70.3938 56.2679C70.5316 56.4106 70.7045 56.5145 70.8953 56.5691L95.1693 63.5371C95.3596 63.5918 95.561 63.5955 95.7533 63.5478C95.9455 63.5001 96.1218 63.4027 96.2645 63.2653C96.4071 63.1279 96.5111 62.9554 96.566 62.7651C96.6209 62.5748 96.6248 62.3734 96.5773 62.1811L90.5273 37.6511C90.4679 37.4096 90.3304 37.1945 90.1362 37.0392C89.942 36.8839 89.7019 36.797 89.4533 36.7921V36.7931ZM88.8033 40.0931L93.9173 60.8301L73.4003 54.9401L88.8033 40.0941V40.0931ZM52.9443 71.8641C52.6673 71.8747 52.4039 71.9868 52.2043 72.1791L33.9823 89.7421C33.8396 89.8797 33.7356 90.0524 33.6808 90.2429C33.626 90.4334 33.6224 90.635 33.6702 90.8274C33.718 91.0198 33.8157 91.1962 33.9533 91.3388C34.091 91.4815 34.2637 91.5854 34.4543 91.6401L58.7323 98.6081C58.9225 98.6625 59.1236 98.666 59.3156 98.6183C59.5076 98.5705 59.6836 98.4731 59.8261 98.3359C59.9686 98.1987 60.0725 98.0264 60.1275 97.8364C60.1825 97.6463 60.1865 97.4452 60.1393 97.2531L54.0843 72.7221C54.0221 72.4697 53.8747 72.2465 53.667 72.0902C53.4593 71.9339 53.204 71.854 52.9443 71.8641ZM52.3623 75.1641L57.4803 95.9011L36.9583 90.0111L52.3623 75.1651V75.1641Z" fill="white"/>
</svg>
